<?xml version="1.0" encoding="utf-8"?>
<!-- Generator: Adobe Illustrator 19.1.1, SVG Export Plug-In . SVG Version: 6.00 Build 0)  -->
<svg version="1.1" id="Layer_1" xmlns="http://www.w3.org/2000/svg" xmlns:xlink="http://www.w3.org/1999/xlink" x="0px" y="0px"
	 viewBox="0 0 100 100" style="enable-background:new 0 0 100 100;" xml:space="preserve">
<style type="text/css">
	.st0{fill-rule:evenodd;clip-rule:evenodd;}
</style>
<path class="st0" d="M91.4,79.1c-3.8-1.4-7.2-2.4-9.1-3.3c-4.7-2.2-15.9-5.8-17.6-6.8l-0.4-7.3c0,0,2.8-3.5,3.6-6.6
	c0.8-3.1,1.2-5.4,1.2-5.4s2.2,0.8,3-1.2c0.8-2.1,3.7-10.4,3.2-12.8c-0.5-2.4-1.8-1.8-1.8-1.8s1.7-11.3,1.2-13.5
	C74.2,18.1,76.2,2,50.1,2C23.7,2,25.9,18.1,25.5,20.3c-0.4,2.2,1.2,13.5,1.2,13.5s-1.3-0.7-1.8,1.8c-0.5,2.4,2.3,10.8,3.2,12.8
	c0.8,2.1,3,1.3,3,1.3s0.4,2.3,1.2,5.4c0.8,3.1,3.6,7.1,3.6,7.1l-0.4,7.8h0c0,0-12.7,4.2-17.8,6.5c-1.8,0.8-5.3,1.8-9,3.1
	c10,11.2,24.5,18.2,40.6,18.4H50h0.3C66.7,97.8,81.4,90.5,91.4,79.1z"/>
</svg>
