<?xml version="1.0" encoding="utf-8"?>
<!-- Generator: Adobe Illustrator 19.1.1, SVG Export Plug-In . SVG Version: 6.00 Build 0)  -->
<svg version="1.1" id="Layer_1" xmlns="http://www.w3.org/2000/svg" xmlns:xlink="http://www.w3.org/1999/xlink" x="0px" y="0px"
	 viewBox="0 0 100 100" style="enable-background:new 0 0 100 100;" xml:space="preserve">
<path d="M4.9,81.3L81.3,4.9c3.9-3.9,9.8-3.9,13.7,0c3.9,3.9,3.9,9.8,0,13.7L18.7,95.1c-3.9,3.9-9.8,3.9-13.7,0
	C1,91.5,1,85.3,4.9,81.3z"/>
<path d="M4.9,4.9C8.9,1,14.7,1,18.7,4.9l76.4,76.4c3.9,3.9,3.9,9.8,0,13.7c-3.9,3.9-9.8,3.9-13.7,0L4.9,18.7C1,14.7,1,8.5,4.9,4.9z"
	/>
</svg>
