<?xml version="1.0" encoding="utf-8"?>
<!-- Generator: Adobe Illustrator 19.1.1, SVG Export Plug-In . SVG Version: 6.00 Build 0)  -->
<svg version="1.1" id="Layer_1" xmlns="http://www.w3.org/2000/svg" xmlns:xlink="http://www.w3.org/1999/xlink" x="0px" y="0px"
	 viewBox="0 0 100 100" style="enable-background:new 0 0 100 100;" xml:space="preserve">
<style type="text/css">
	.st0{fill:#010101;}
</style>
<path class="st0" d="M85.6,66.2c3.6-5.6,5.6-12.2,5.6-19c0-21.6-20-39.3-44.6-39.3S2,25.5,2,47.2s20,39.3,44.6,39.3
	c7.3,0,14.1-1.5,20.1-4.3l31.2,10L85.6,66.2z M76.2,76.7l-10-3.2c-4,2.1-8.5,3.6-13.2,4.3c-2.1,0.4-4.1,0.6-6.4,0.6
	c-20.1,0-36.5-13.9-36.5-31.2c0-17.1,16.4-31.2,36.5-31.2s36.5,13.9,36.5,31.2c0,3.4-0.8,6.8-1.9,9.8s-2.8,5.8-5.1,8.3l3.8,7.9
	l2.6,5.5L76.2,76.7z"/>
</svg>
