<?xml version="1.0" encoding="utf-8"?>
<!-- Generator: Adobe Illustrator 19.1.1, SVG Export Plug-In . SVG Version: 6.00 Build 0)  -->
<svg version="1.1" id="Layer_1" xmlns="http://www.w3.org/2000/svg" xmlns:xlink="http://www.w3.org/1999/xlink" x="0px" y="0px"
	 viewBox="0 0 100 100" style="enable-background:new 0 0 100 100;" xml:space="preserve">
<path d="M52.3,76.2c-2.3,0-3.6-1.8-2.8-4.6c1-3.8,3.3-6.7,7.2-7.9c0.8-0.3,1.3-0.5,2-0.5c2,0,3.3,1.8,3.1,4.6
	c-1,3.8-3.3,6.9-7.4,8.4C53.3,76.2,52.8,76.2,52.3,76.2 M37.7,49.4c-0.8,0-1.5-0.3-2.3-0.5c-1.5-0.8-1.5-2.3-1.5-3.8
	c0.3-6.7,4.4-12,8.4-16.1C46.6,25,52.5,22,59.4,22h0.3c5.1,0,7.9,3.6,7.2,8.7c-1,6.1-4.6,10.8-8.2,15.6c-2,2.8-3.8,4.9-4.6,8.4
	c0,3.1,1,4.4,0.8,4.6c0,0.3-0.5,0.5-1.3,0.5S52,59.3,51.8,57c-0.3-4.4,1.5-8.2,2.6-12c0.8-2.8,1.3-5.4,1-8.2c-0.3-2.8-2-3.6-4.1-3.6
	c-4.4,0-10.5,4.6-7.7,6.7c2.6,2,1,4.9-0.8,7.2C41.5,48.6,39.7,49.4,37.7,49.4 M70.2,2C56.6,2,38.7,17.4,30.8,24
	C22.1,31.2,12.8,40.1,11,52.2c-1.5,11,5.1,25.6,10,35.1C25.1,94.9,30.5,98,36.6,98c12,0,26.1-11,35.1-18.9
	c20.5-17.9,20.7-41.5,12-65.5C81.2,5.1,76.1,2,70.2,2"/>
</svg>
