<?xml version="1.0" encoding="utf-8"?>
<!-- Generator: Adobe Illustrator 19.1.1, SVG Export Plug-In . SVG Version: 6.00 Build 0)  -->
<svg version="1.1" id="Layer_1" xmlns="http://www.w3.org/2000/svg" xmlns:xlink="http://www.w3.org/1999/xlink" x="0px" y="0px"
	 viewBox="0 0 100 100" style="enable-background:new 0 0 100 100;" xml:space="preserve">
<path d="M80.9,24.6c-21.4-7.5-41-1.5-59.2,10.6C15.7,39.3,4.1,46.2,2.3,53.9c-2.6,10.6,11.6,18,19.3,21.9
	c21.6,10.8,48.4-11.3,65.4-22.7C104.8,41.1,99.7,31.3,80.9,24.6z M34,60.4c-4.4,0.8-8.5,0.5-11.8-2.1c-2.6-2.1-1.5-4.6,2.6-5.4
	c4.4-0.8,8.2-0.3,11.3,1.8C38.9,56.5,37.9,59.1,34,60.4z M74.7,48.5c-6.7,1.8-13.1,1-19.6,0.5c-3.9-0.3-6.4-0.8-10.6,0.3
	c-3.1,1.3-4.1,2.6-4.6,2.6c-0.5,0-2.8-1.3,1.3-3.3c4.4-2.1,9-2.3,13.7-3.1c3.1-0.5,6.2-1.3,9-2.6c8.2-4.4-6.4-12.1-8-7.7
	c-1,2.8-4.6,2.8-7.7,2.3s-5.4-2.1-5.4-4.6c0-1.5,1.8-2.3,3.3-2.8c7-2.6,14.2-1.8,20.3-0.5c5.9,1.5,11.6,4.9,14.7,9.8
	C82.9,43.1,80.4,47,74.7,48.5z"/>
</svg>
