<?xml version="1.0" encoding="utf-8"?>
<!-- Generator: Adobe Illustrator 19.1.1, SVG Export Plug-In . SVG Version: 6.00 Build 0)  -->
<svg version="1.1" id="Layer_1" xmlns="http://www.w3.org/2000/svg" xmlns:xlink="http://www.w3.org/1999/xlink" x="0px" y="0px"
	 viewBox="0 0 100 100" style="enable-background:new 0 0 100 100;" xml:space="preserve">
<path d="M59.4,69.7c-1.3,0-2.8-0.6-5.4-2.5c-3.8-2.5-6.6-6.3-5.7-7.6c0.3-0.6,0.6-0.9,1.6-0.9c1.3,0,2.8,0.6,5,2.2
	c3.5,2.2,6,5.7,6.3,7.6C60.7,68.7,60.1,69.7,59.4,69.7 M38.3,36.6c-0.3,0-0.6,0-0.9,0c-1.9-0.3-4.4-2.2-8.2-6
	c-1.9-1.9-2.2-3.1-2.2-4.1c-0.3-2.5,0.9-3.1,2.8-3.1c1.3,0,2.8,0.3,4.4,0.6c4.1,1.3,10.4,5.4,17.9,12c5.7,5,9.4,10.4,9.4,12.9
	c-0.3,2.2-1.9,2.5-4.1,2.5c-0.9,0-1.9,0-2.8,0c-0.6,0-1.3,0-1.9,0c-0.9,0-1.9,0.3-1.9,1.3c0.3,1.9,1.6,3.8,1.6,4.1l0,0
	c-0.3,0-2.5-1.3-3.8-4.4c-0.9-3.1,0.3-4.1,1.3-5.7c0.3-0.9,0.9-2.2,0-4.4c-1.6-5-11-11.6-13.2-11.6c-0.6,0-0.6,0.6,0.6,1.9
	C39.9,35.7,39.6,36.6,38.3,36.6 M18.8,2c-9.8,0,3.8,27.4,7.9,35.3C38.3,58.3,52.5,80.1,73,93.9c3.5,2.5,6.6,4.1,8.8,4.1
	c2.5,0,3.5-2.5,2.5-9.4C82.7,78.2,76.4,67.2,73,57.1C65.4,35,46.8,17.7,27.6,5.8C23.5,3.3,20.7,2,18.8,2"/>
</svg>
