<?xml version="1.0" encoding="utf-8"?>
<!-- Generator: Adobe Illustrator 19.1.1, SVG Export Plug-In . SVG Version: 6.00 Build 0)  -->
<svg version="1.1" id="Layer_1" xmlns="http://www.w3.org/2000/svg" xmlns:xlink="http://www.w3.org/1999/xlink" x="0px" y="0px"
	 viewBox="0 0 100 100" style="enable-background:new 0 0 100 100;" xml:space="preserve">
<path d="M50,2.8C23.5,2.8,2,23.9,2,50s21.5,47.2,48,47.2S98,76.1,98,50C97.8,23.9,76.5,2.8,50,2.8z M60.2,50h-6.8
	c0,10.6,0,23.6,0,23.6h-9.8c0,0,0-12.9,0-23.6h-4.7v-8.3h4.7v-5.5c0-3.8,1.9-9.8,10-9.8H61v8.1c0,0-4.5,0-5.3,0
	c-0.9,0-2.1,0.4-2.1,2.3v4.9h7.6L60.2,50z"/>
</svg>
