<?xml version="1.0" encoding="utf-8"?>
<!-- Generator: Adobe Illustrator 19.1.1, SVG Export Plug-In . SVG Version: 6.00 Build 0)  -->
<svg version="1.2" baseProfile="tiny" id="Layer_1" xmlns="http://www.w3.org/2000/svg" xmlns:xlink="http://www.w3.org/1999/xlink"
	 x="0px" y="0px" viewBox="0 0 100 100" xml:space="preserve">
<path d="M81.7,41.5l0-0.2h-6.9V21.6c0-0.8,1-19.6-19.5-19.6h-10C24.6,2,25.3,21.2,25.4,22.2h-0.2v19.2h-6.4c-3.6,0-7.2,3.2-7.2,6.8
	v43v0.2c0,3.6,3.5,6.6,7.2,6.6h62.9h0.2c3.6,0,6.6-3.1,6.6-6.7v-0.2v-43C88.4,44.6,85.4,41.5,81.7,41.5z M61.2,41.4H38.8V21.6
	c0-3,2.4-6.2,6.4-6.2h10.1c4,0,5.9,3.1,5.9,6.1V41.4z"/>
</svg>
