<?xml version="1.0" encoding="utf-8"?>
<!-- Generator: Adobe Illustrator 19.1.1, SVG Export Plug-In . SVG Version: 6.00 Build 0)  -->
<svg version="1.1" id="Layer_1" xmlns="http://www.w3.org/2000/svg" xmlns:xlink="http://www.w3.org/1999/xlink" x="0px" y="0px"
	 viewBox="0 0 100 100" style="enable-background:new 0 0 100 100;" xml:space="preserve">
<path d="M68.9,35.8C68.5,34.7,68,33.9,67,33c-0.9-0.8-1.7-1.3-2.8-1.9c-0.9-0.4-2.1-0.8-4.5-0.8c-2.6-0.2-3.4-0.2-9.8-0.2
	s-7.4,0-9.8,0.2c-2.5,0.2-3.6,0.6-4.5,0.8c-1.1,0.4-1.9,0.9-2.8,1.9c-0.9,0.8-1.3,1.7-1.9,2.8c-0.4,0.8-0.8,2.1-0.8,4.5
	c-0.2,2.5-0.2,3.2-0.2,9.6s0,7.2,0.2,9.6c0.2,2.3,0.6,3.6,0.8,4.5c0.4,1.1,0.9,1.9,1.9,2.8c0.9,0.8,1.7,1.3,2.8,1.9
	c0.9,0.4,2.1,0.8,4.5,0.8c2.6,0.2,3.4,0.2,9.8,0.2s7.4,0,9.8-0.2c2.5-0.2,3.6-0.6,4.5-0.8c1.1-0.4,1.9-0.9,2.8-1.9
	c0.9-0.8,1.3-1.7,1.9-2.8c0.4-0.8,0.8-2.1,0.8-4.5c0.2-2.5,0.2-3.2,0.2-9.6s0-7.2-0.2-9.6C69.7,37.9,69.3,36.6,68.9,35.8z M50,62.3
	c-7,0-12.5-5.5-12.5-12.3S43.2,37.7,50,37.7c7,0,12.5,5.5,12.5,12.3S56.8,62.3,50,62.3z M62.5,39.6c-1.7,0-2.8-1.3-2.8-2.8
	c0-1.5,1.3-2.8,2.8-2.8c1.7,0,2.8,1.3,2.8,2.8C65.3,38.3,64,39.6,62.5,39.6z"/>
<path d="M50,2.8C23.5,2.8,2,23.9,2,50s21.5,47.2,48,47.2S98,76.1,98,50C97.8,23.9,76.5,2.8,50,2.8z M74.2,60
	c-0.2,2.6-0.6,4.3-1.1,5.9c-0.6,1.5-1.5,2.8-2.8,4.3c-1.3,1.3-2.6,2.1-4.3,2.8c-1.5,0.6-3.4,0.9-5.9,1.1c-2.6,0.2-3.4,0.2-10,0.2
	s-7.4,0-10-0.2c-2.6-0.2-4.3-0.6-5.9-1.1c-1.5-0.6-3-1.5-4.3-2.8c-1.3-1.3-2.3-2.6-2.8-4.3c-0.6-1.5-0.9-3.2-1.1-5.9
	c-0.2-2.6-0.2-3.4-0.2-9.8c0-6.6,0-7.4,0.2-9.8c0.2-2.6,0.6-4.3,1.1-5.9c0.6-1.5,1.5-2.8,2.8-4.3c1.3-1.3,2.6-2.1,4.3-2.8
	c1.5-0.6,3.4-0.9,5.9-1.1C42.6,26,43.4,26,50,26s7.4,0,10,0.2c2.6,0.2,4.3,0.6,5.9,1.1c1.5,0.6,3,1.5,4.3,2.8s2.3,2.6,2.8,4.3
	c0.6,1.5,0.9,3.2,1.1,5.9s0.2,3.4,0.2,9.8C74.4,56.6,74.2,57.4,74.2,60z"/>
<path d="M50,42.1c-4.5,0-8.3,3.6-8.3,7.9s3.6,7.9,8.1,7.9s8.1-3.6,8.1-7.9C58.1,45.7,54.3,42.1,50,42.1z"/>
</svg>
