<?xml version="1.0" encoding="utf-8"?>
<!-- Generator: Adobe Illustrator 19.1.1, SVG Export Plug-In . SVG Version: 6.00 Build 0)  -->
<svg version="1.2" baseProfile="tiny" id="Layer_1" xmlns="http://www.w3.org/2000/svg" xmlns:xlink="http://www.w3.org/1999/xlink"
	 x="0px" y="0px" viewBox="0 0 100 100" xml:space="preserve">
<path d="M63.7,40.1c-1.4,0-2.7-0.8-3.5-2.1c-0.7-1.3-0.8-3-0.2-4.4c4.5-9.9,3.6-20.8,0.4-26.4c-1.1-1.9-2.3-3-3.4-3
	c-2.1,0-3.2,4.8-4.5,11.1c-0.4,2.2-0.9,4.4-1.4,6.5C49.4,28.3,37,42.6,33.1,47v46.9c0.8,0.5,2.2,1.3,3.5,1.8h49.1
	c0.8-0.2,2.8-2.3,3.5-5c0.2-0.9,0.2-1.8,0-2c-1.3-1.3-1.7-3.5-0.9-5.2c0.7-1.6,2.3-2.6,3.9-2.5c0.6-0.5,1.8-2.4,2-4.8
	c0.1-1.1,0-2.4-1-3.1c-1.6-1.2-2.2-3.4-1.5-5.3c0.7-1.9,2.6-3.1,4.4-2.8c0,0,0,0,0,0c0.5,0,1.2-1,1.5-2.5c0.3-1.3,0.1-2.9-0.7-3.3
	c-1.2-0.6-2.1-1.8-2.4-3.2c-0.3-1.4,0.1-2.9,1.1-4c5.4-5.3-0.4-10.2-0.9-11.5"/>
<path d="M19.8,94.5H5.9c-2.1,0-3.9-2.3-3.9-5.1V54.3c0-2.8,1.7-5.1,3.9-5.1h13.9c2.1,0,3.9,2.3,3.9,5.1v35.1
	C23.7,92.2,21.9,94.5,19.8,94.5z"/>
</svg>
