<?xml version="1.0" encoding="utf-8"?>
<!-- Generator: Adobe Illustrator 19.1.1, SVG Export Plug-In . SVG Version: 6.00 Build 0)  -->
<svg version="1.1" id="Layer_1" xmlns="http://www.w3.org/2000/svg" xmlns:xlink="http://www.w3.org/1999/xlink" x="0px" y="0px"
	 viewBox="0 0 100 100" style="enable-background:new 0 0 100 100;" xml:space="preserve">
<g>
	<path d="M84.2,90.6H38.7c-0.4,0-0.7,0-0.9-0.2c-1.4-0.5-2.8-1.2-3.7-1.8c-0.7-0.5-1.2-1.4-1.2-2.3V46.1c0-0.7,0.2-1.4,0.7-1.8
		l1.2-1.2C38.3,39.4,48,28,49.3,23.6c0-0.2,0.2-0.5,0.2-1.1c1.8-7.8,0.9-11.6,6.7-13c4.1-0.9,7.6,3,9.2,5.6c4.2,7.1,3,12.9,0.7,20.6
		c0,0.2-0.2,0.4-0.2,0.4c-0.4,0.7-0.7,1.4-0.7,1.8c0.2,0,0.4,0,0.5,0c0.5,0,0.9,0,1.2,0l0,0h22.9c2.6-0.2,5.8,2.5,7.2,5.3
		c1.6,3.2,0.9,6.5-1.8,9.2c-0.2,0.2-0.2,0.4-0.4,0.7c0,0,0,0,0.2,0.2c1.1,0.9,3.4,2.8,2.8,6.7v0.2c-0.9,3.7-3.7,4.6-5.3,5.1
		c-0.2,0-0.4,0.2-0.4,0.2c0,0.4,0.2,0.7,0.5,1.1c0.2,0.2,0.4,0.4,0.5,0.5c1.2,1.6,1.8,3.4,1.6,5.3c-0.4,2.8-2.3,4.8-3,5.3
		c-0.5,0.4-1.1,0.5-1.8,0.5c-0.5,0-0.9,0.2-1.1,0.7c-0.2,0.5-0.2,1.1,0.2,1.4c1.1,0.9,1.2,2.5,0.7,4.4c-0.9,2.8-3.4,5.3-5.1,5.8
		C84.5,90.6,84.4,90.6,84.2,90.6z M39.2,85.3h44.1c0.4-0.4,1.1-1.2,1.4-2.3c-1.4-1.9-1.8-4.4-0.7-6.7c0.9-1.9,2.8-3.2,4.8-3.5
		c0.4-0.5,0.9-1.4,0.2-2.3c-2.1-1.8-3-4.8-1.9-7.4c0.7-1.8,2.5-2.5,3.5-2.8c1.4-0.5,1.6-0.7,1.8-1.2c0.2-0.9-0.2-1.2-1.1-1.9
		c-0.7-0.5-1.6-1.4-1.8-2.6c-0.4-2.1,0.2-4.2,1.8-5.8l0.2-0.2c1.1-0.9,1.1-1.6,0.9-2.1c-0.4-1.4-1.9-2.8-2.6-3l0,0H66.6
		c-0.2,0-0.5,0-0.9,0c-1.8,0.2-4.6,0.4-6-1.9c-1.2-2.1-0.4-4.8,0.9-7.2c2.1-7.2,2.8-11.3-0.2-16.2c-1.1-1.8-2.8-3.2-3.4-3.2l0,0
		c-1.1,0.2-0.7-0.7-2.6,9c-0.2,0.7-0.2,1.2-0.4,1.4c-1.6,5.6-11.5,17.5-15.7,21.7l-0.5,0.5v37.6C38.5,84.9,38.9,85.1,39.2,85.3z"/>
</g>
<g>
	<path d="M24.8,89.2H8.9c-1.9,0-3.7-0.7-4.9-2.1C2.7,85.6,2,83.9,2,81.9V50.2c0-4.1,3.2-7.4,6.9-7.4h15.9V89.2z M8.9,48.1
		c-0.9,0-1.6,1.1-1.6,2.1v31.7c0,0.5,0.2,1.1,0.5,1.4c0.2,0.2,0.5,0.5,1.1,0.5h10.6V48.1H8.9z"/>
</g>
</svg>
