<?xml version="1.0" encoding="utf-8"?>
<!-- Generator: Adobe Illustrator 19.1.1, SVG Export Plug-In . SVG Version: 6.00 Build 0)  -->
<svg version="1.1" id="Layer_1" xmlns="http://www.w3.org/2000/svg" xmlns:xlink="http://www.w3.org/1999/xlink" x="0px" y="0px"
	 viewBox="0 0 100 100" style="enable-background:new 0 0 100 100;" xml:space="preserve">
<path d="M81.8,41.6l0-0.2h-6.9V21.9c0-0.7,1-19.4-19.6-19.4H45.2c-20.6,0-19.9,19-19.9,20h-0.2v19h-6.5c-3.6,0-7.2,3.2-7.2,6.7v42.6
	v0.2c0,3.6,3.5,6.6,7.2,6.6h63h0.2c3.6,0,6.6-3,6.6-6.6v-0.2V48.2C88.5,44.6,85.4,41.6,81.8,41.6z M61.2,41.4H38.8V21.9
	c0-2.9,2.4-6.1,6.4-6.1h10.1c4,0,5.9,3.1,5.9,6.1V41.4z"/>
</svg>
