<?xml version="1.0" encoding="utf-8"?>
<!-- Generator: Adobe Illustrator 19.1.1, SVG Export Plug-In . SVG Version: 6.00 Build 0)  -->
<svg version="1.2" baseProfile="tiny" id="Layer_1" xmlns="http://www.w3.org/2000/svg" xmlns:xlink="http://www.w3.org/1999/xlink"
	 x="0px" y="0px" viewBox="0 0 100 100" xml:space="preserve">
<path d="M80,19.5H20c-3,0-5.9,0.6-8.4,1.8l35.2,30c1.7,1.5,4.8,1.5,6.5,0l35.2-30C86,20.1,83.1,19.5,80,19.5z"/>
<path d="M40.3,56.7l-6.9-5.8L5.7,74.5c3.3,3.7,8.4,6,14.3,6H80c5.8,0,11-2.4,14.3-6L66.6,50.9l-6.9,5.8c-2.6,2.2-6,3.4-9.7,3.4
	C46.3,60.1,42.9,58.9,40.3,56.7z"/>
<path d="M2,65.3c0,0.4,0,0.9,0.1,1.3L27,45.4L4.8,26.5C3,28.9,2,31.7,2,34.7V65.3z"/>
<path d="M98,34.7c0-3-1-5.8-2.8-8.2L73,45.4l24.9,21.2c0-0.4,0.1-0.9,0.1-1.3V34.7z"/>
</svg>
