<?xml version="1.0" encoding="utf-8"?>
<!-- Generator: Adobe Illustrator 19.1.1, SVG Export Plug-In . SVG Version: 6.00 Build 0)  -->
<svg version="1.1" id="Layer_1" xmlns="http://www.w3.org/2000/svg" xmlns:xlink="http://www.w3.org/1999/xlink" x="0px" y="0px"
	 viewBox="0 0 100 100" style="enable-background:new 0 0 100 100;" xml:space="preserve">
<path d="M2,16.7C2,12.9,5.2,10,9.2,10h81.3c4.3,0,7.5,2.9,7.5,6.7s-3.2,6.7-7.2,6.7H9.2C5.2,23.3,2,20.4,2,16.7z"/>
<path d="M2,48.7C2,44.9,5.2,42,9.2,42h81.3c4,0,7.2,2.9,7.2,6.7s-3.2,6.7-7.2,6.7H9.2C5.2,55.3,2,52.4,2,48.7z"/>
<path d="M2,83.3c0-3.7,3.2-6.7,7.2-6.7h81.3c4,0,7.2,2.9,7.2,6.7S94.5,90,90.5,90H9.2C5.2,90,2,87.1,2,83.3z"/>
</svg>
