<?xml version="1.0" encoding="utf-8"?>
<!-- Generator: Adobe Illustrator 19.1.1, SVG Export Plug-In . SVG Version: 6.00 Build 0)  -->
<svg version="1.2" baseProfile="tiny" id="Layer_1" xmlns="http://www.w3.org/2000/svg" xmlns:xlink="http://www.w3.org/1999/xlink"
	 x="0px" y="0px" viewBox="0 0 25 25" xml:space="preserve">
<g>
	<path fill="#010101" d="M19.9,18.7c-3.4-1.2-4.5-2.3-4.5-4.6c0-1.4,1-0.9,1.5-3.4c0.2-1,1.1,0,1.3-2.4c0-0.9-0.5-1.2-0.5-1.2
		s0.3-1.4,0.4-2.4C18.1,3.4,17.3,0,12.5,0S6.9,3.4,7,4.8c0.1,1.1,0.4,2.4,0.4,2.4S6.8,7.4,6.8,8.4c0.2,2.3,1.1,1.3,1.3,2.4
		c0.5,2.5,1.5,2,1.5,3.4c0,2.3-1.1,3.3-4.5,4.6c-3.4,1.3-5.7,2.5-5.7,3.4c0,0.9,0,2.9,0,2.9h13.1h13.1c0,0,0-2.1,0-2.9
		C25.6,21.2,23.3,19.9,19.9,18.7z"/>
</g>
</svg>
