<?xml version="1.0" encoding="utf-8"?>
<!-- Generator: Adobe Illustrator 19.1.1, SVG Export Plug-In . SVG Version: 6.00 Build 0)  -->
<svg version="1.2" baseProfile="tiny" id="Layer_1" xmlns="http://www.w3.org/2000/svg" xmlns:xlink="http://www.w3.org/1999/xlink"
	 x="0px" y="0px" viewBox="0 0 100 100" xml:space="preserve">
<path d="M75.7,91.8c0.4-1.1,0.3-2.3-0.3-3.6L66.2,71h-0.1c-0.3-0.6-0.9-1.2-1.7-1.7c-1.2-0.7-2.5-1-3.9-0.7l-6.9,1.7
	c-0.1,0-0.3,0-0.6,0c-0.3-0.1-0.4-0.1-0.5-0.2l-0.9-0.9c-0.5-0.5-1.2-1.4-2.1-2.7c-0.8-1.3-1.7-3.1-2.7-5.4c-1-2.3-1.8-5.3-2.7-9
	c-0.9-3.6-1.4-6.6-1.6-9.1c-0.2-2.5-0.2-4.5-0.1-6c0.1-1.7,0.4-3.2,0.9-4.4c0.1-0.1,0.2-0.3,0.4-0.5c0.2-0.2,0.4-0.3,0.5-0.3l6-1.4
	c1.1-0.2,1.9-0.7,2.7-1.6c0.8-0.9,1.2-1.7,1.3-2.8l1.6-19.8c0-0.7-0.1-1.5-0.4-2.1C55,3.5,54.5,3,53.9,2.5c-0.9-0.5-1.9-0.6-3-0.4
	L34.7,5.8c-0.8,0.1-1.5,0.4-2.4,1c-0.8,0.5-1.4,1.1-1.9,1.7c-0.1,0.1-0.4,0.5-1,1.4c-0.6,0.9-1.3,2.1-1.9,3.8
	c-0.8,1.7-1.4,3.8-2.1,6.4c-0.6,2.6-1.1,5.5-1.3,9.1c-0.2,3.5-0.2,7.5,0.1,11.9c0.3,4.5,1.2,9.5,2.6,15c1.6,7,3.7,13,5.9,17.9
	c2.3,4.9,4.7,8.9,6.9,12.1c2.3,3.1,4.4,5.4,6.3,7.1c1.9,1.6,3.4,2.7,4.3,3.3c0.4,0.2,0.8,0.4,1,0.5c0.2,0.1,0.4,0.2,0.4,0.2
	c0.8,0.3,1.6,0.5,2.6,0.6c1,0.1,1.8,0,2.6-0.2l16-3.6C74.2,93.7,75.2,92.9,75.7,91.8z"/>
</svg>
