<?xml version="1.0" encoding="utf-8"?>
<!-- Generator: Adobe Illustrator 19.1.1, SVG Export Plug-In . SVG Version: 6.00 Build 0)  -->
<svg version="1.2" baseProfile="tiny" id="Layer_1" xmlns="http://www.w3.org/2000/svg" xmlns:xlink="http://www.w3.org/1999/xlink"
	 x="0px" y="0px" viewBox="0 0 100 100" xml:space="preserve">
<path fill-rule="evenodd" d="M50,2C32,2,17.4,17.3,17.4,36.1c0,3.6,0.5,7.1,1.6,10.4C23.1,60.2,50,98,50,98s27.1-38,31.2-51.9
	c0.9-3.2,1.4-6.5,1.4-10C82.6,17.3,68,2,50,2z M50,49.9c-8.1,0-14.6-6.6-14.6-14.8c0-8.2,6.5-14.8,14.6-14.8
	c8.1,0,14.6,6.6,14.6,14.8C64.7,43.3,58.1,49.9,50,49.9z"/>
</svg>
