<?xml version="1.0" encoding="utf-8"?>
<!-- Generator: Adobe Illustrator 19.1.1, SVG Export Plug-In . SVG Version: 6.00 Build 0)  -->
<svg version="1.2" baseProfile="tiny" id="Layer_1" xmlns="http://www.w3.org/2000/svg" xmlns:xlink="http://www.w3.org/1999/xlink"
	 x="0px" y="0px" width="100px" height="100px" viewBox="0 0 100 100" xml:space="preserve">
<path d="M98,26.9c0-3.6-0.7-4.9-4.5-4.9H28.9L27,9.9C26.8,6.3,25,5,21.2,5H6.8C3.2,5,2,6.2,2,9.9v2.4c0,3.8,1.2,4.9,4.8,4.9h8.9
	l7.9,46.2c0.8,2.5,3.1,4.7,7.2,4.9h52.8c4.2,0,6.2-0.9,7.2-4.9L98,26.9z M81.1,56.1H33.7l-3.5-21.9h55.1L81.1,56.1z M33.2,85.3
	c0,5.4,4.3,9.7,9.6,9.7c5.3,0,9.6-4.4,9.6-9.7c0-5.4-4.3-9.7-9.6-9.7C37.5,75.5,33.2,79.9,33.2,85.3z M64.4,85.3
	c0,5.4,4.3,9.7,9.6,9.7c5.3,0,9.6-4.4,9.6-9.7c0-5.4-4.3-9.7-9.6-9.7C68.7,75.5,64.4,79.9,64.4,85.3z"/>
</svg>
