<?xml version="1.0" encoding="utf-8"?>
<!-- Generator: Adobe Illustrator 19.1.1, SVG Export Plug-In . SVG Version: 6.00 Build 0)  -->
<svg version="1.2" baseProfile="tiny" id="Layer_1" xmlns="http://www.w3.org/2000/svg" xmlns:xlink="http://www.w3.org/1999/xlink"
	 x="0px" y="0px" viewBox="0 0 100 100" xml:space="preserve">
<g>
	<path fill="#010101" d="M76.7,66c-3.7,0-7,1.2-9.7,3.3L39.1,52.6c0.1-0.9,0.2-1.7,0.2-2.6c0-0.9-0.1-1.8-0.2-2.6l27.8-16.7
		c2.7,2.1,6.1,3.3,9.7,3.3c8.8,0,16-7.2,16-16s-7.2-16-16-16s-16,7.2-16,16c0,0.9,0.1,1.8,0.2,2.6L33.1,37.3
		C30.4,35.2,27,34,23.3,34c-8.8,0-16,7.2-16,16s7.2,16,16,16c3.7,0,7-1.2,9.7-3.3l27.8,16.7c-0.1,0.9-0.2,1.7-0.2,2.6
		c0,8.8,7.2,16,16,16s16-7.2,16-16S85.5,66,76.7,66z"/>
</g>
</svg>
