<?xml version="1.0" encoding="utf-8"?>
<!-- Generator: Adobe Illustrator 19.1.1, SVG Export Plug-In . SVG Version: 6.00 Build 0)  -->
<svg version="1.2" baseProfile="tiny" id="Layer_1" xmlns="http://www.w3.org/2000/svg" xmlns:xlink="http://www.w3.org/1999/xlink"
	 x="0px" y="0px" viewBox="0 0 100 100" xml:space="preserve">
<g>
	<path fill="#010101" d="M8.4,32.9h83.3c2.8,0,2.3-3,0.9-3.5c-1.4-0.5-16.9-6.3-19.6-6.3h-4.4V8.4H31.4v14.7H27
		c-2.7,0-18.2,5.8-19.6,6.3C6,29.9,5.6,32.9,8.4,32.9z M92.6,38.2H7.4c-2.7,0-5.4,3.2-5.4,5.9v17.1c0,2.7,2.7,5.9,5.4,5.9h9.7
		l-4.3,24.5h74.4l-4.3-24.5h9.7c2.7,0,5.4-3.2,5.4-5.9V44.1C98,41.4,95.3,38.2,92.6,38.2z M22.6,81.8L29.4,50h41.1l6.9,31.8H22.6z"
		/>
</g>
</svg>
