<?xml version="1.0" encoding="utf-8"?>
<!-- Generator: Adobe Illustrator 19.1.1, SVG Export Plug-In . SVG Version: 6.00 Build 0)  -->
<svg version="1.2" baseProfile="tiny" id="Layer_1" xmlns="http://www.w3.org/2000/svg" xmlns:xlink="http://www.w3.org/1999/xlink"
	 x="0px" y="0px" viewBox="0 0 100 100" xml:space="preserve">
<path d="M73.6,20.1v-6.4c0-3.5-2.8-6.3-6.3-6.3H30.1v9.1c0,4.4-0.1,11.6-0.1,11.6c0,0.1-11.8,0.4-11.8,0.3l-10,0V86
	c0,3.5,2.8,6.3,6.3,6.3h39.5l-0.2,1.1c-0.4,1.5-0.3,3,0.1,4.5H14.7C8.1,97.9,2.8,92.6,2.8,86V26.6c0-0.7,0.1-1.5,0.4-2.1
	c0.3-0.7,0.7-1.2,1.2-1.8L24.7,3.5c0.4-0.4,1.1-0.9,1.7-1.1C27,2.1,27.7,2,28.4,2h38.9c6.6,0,11.9,5.3,11.9,11.9v6.4v1.9v27.8
	c-0.9-0.3-1.9-0.6-2.9-0.6c-0.9,0-1.9,0.2-2.7,0.4V20.1H73.6z"/>
<path d="M94.9,71.7l-11.8-0.9l-4.5-10.9c-0.4-1-1.3-1.6-2.4-1.6s-1.9,0.6-2.4,1.6l-4.5,10.9l-11.6,0.9c-2.1,0.1-3.1,2.9-1.5,4.4
	l9.1,7.5L62.6,95c-0.4,1.7,0.9,3,2.4,3c0.4,0,0.9-0.1,1.3-0.4l10-6.2l10.1,6.2c0.4,0.2,0.9,0.4,1.3,0.4c1.5,0,2.7-1.3,2.4-3
	l-2.9-11.4l9.2-7.5C98,74.6,97,71.8,94.9,71.7z"/>
</svg>
