<?xml version="1.0" encoding="utf-8"?>
<!-- Generator: Adobe Illustrator 19.1.1, SVG Export Plug-In . SVG Version: 6.00 Build 0)  -->
<svg version="1.2" baseProfile="tiny" id="Layer_1" xmlns="http://www.w3.org/2000/svg" xmlns:xlink="http://www.w3.org/1999/xlink"
	 x="0px" y="0px" viewBox="296.5 386 20 20" xml:space="preserve">
<g>
	<path fill="#ED1F24" d="M316.1,403.7l-5.1-5.1c0.9-1.3,1.5-2.9,1.5-4.6c0-4.4-3.6-8-8-8s-8,3.6-8,8s3.6,8,8,8
		c1.7,0,3.3-0.6,4.6-1.5l5.1,5.1c0.3,0.3,0.6,0.4,0.9,0.4s0.7-0.1,0.9-0.4C316.6,405.1,316.6,404.2,316.1,403.7z M304.5,399.3
		c-2.9,0-5.3-2.4-5.3-5.3s2.4-5.3,5.3-5.3s5.3,2.4,5.3,5.3S307.4,399.3,304.5,399.3z"/>
</g>
</svg>
