<?xml version="1.0" encoding="utf-8"?>
<!-- Generator: Adobe Illustrator 19.1.1, SVG Export Plug-In . SVG Version: 6.00 Build 0)  -->
<svg version="1.1" id="Layer_1" xmlns="http://www.w3.org/2000/svg" xmlns:xlink="http://www.w3.org/1999/xlink" x="0px" y="0px"
	 viewBox="0 0 100 100" style="enable-background:new 0 0 100 100;" xml:space="preserve">
<path d="M88.3,30.1c0,1,0,1.5,0,2.6c0,26.6-19.9,56.7-56.2,56.7c-11.2,0-21.4-3.1-30.1-9.2c1.5,0,3.1,0.5,4.6,0.5
	c9.2,0,17.9-3.1,24.5-8.7c-8.7,0-15.8-5.6-18.4-13.3c1,0,2.6,0.5,3.6,0.5c2,0,3.6,0,5.1-0.5C12.7,56.1,6.1,48.5,6.1,38.8l0,0
	c2.6,1.5,5.6,2.6,9.2,2.6c-5.6-4.1-9.2-10.2-9.2-16.9c0-3.6,1-7.1,2.6-10.2c9.7,12.3,24.5,19.9,40.9,20.9C49,33.7,49,32.1,49,30.6
	c0-11.2,8.7-19.9,19.4-19.9c5.6,0,10.7,2.6,14.3,6.1c4.6-1,8.7-2.6,12.8-4.6c-1.5,4.6-4.6,8.7-8.7,10.7c4.1-0.5,7.7-1.5,11.2-3.1
	C95.4,24,92.4,27.5,88.3,30.1z"/>
</svg>
