<?xml version="1.0" encoding="utf-8"?>
<!-- Generator: Adobe Illustrator 19.1.1, SVG Export Plug-In . SVG Version: 6.00 Build 0)  -->
<svg version="1.1" id="Layer_1" xmlns="http://www.w3.org/2000/svg" xmlns:xlink="http://www.w3.org/1999/xlink" x="0px" y="0px"
	 viewBox="0 0 100 100" style="enable-background:new 0 0 100 100;" xml:space="preserve">
<path d="M49.6,42.7c0.4,0,0.7-0.2,0.9-0.4c0.2-0.2,0.4-0.6,0.4-0.7v-7.3c0-0.4-0.2-0.6-0.4-0.7c-0.2-0.2-0.6-0.2-0.9-0.2
	c-0.4,0-0.6,0-0.7,0.2c-0.2,0.2-0.4,0.4-0.4,0.7v7.3c0,0.4,0.2,0.6,0.4,0.7C49.1,42.7,49.3,42.7,49.6,42.7z"/>
<path d="M55.8,56c-0.4,0-0.7,0.2-1.1,0.4s-0.7,0.6-1.1,0.7v-5.2h-2.4v16.2h2.4v-0.9c0.4,0.4,0.7,0.6,1.1,0.7
	c0.4,0.2,0.7,0.2,1.3,0.2c0.7,0,1.3-0.2,1.7-0.7c0.4-0.4,0.6-1.1,0.6-1.9v-6.7c0-0.9-0.2-1.7-0.6-2.2C57.1,56.4,56.5,56,55.8,56z
	 M55.6,65.3c0,0.4,0,0.7-0.2,0.7c-0.2,0.2-0.4,0.2-0.7,0.2c-0.2,0-0.4,0-0.6-0.2c-0.2,0-0.4-0.2-0.6-0.4v-7.5
	c0.2-0.2,0.4-0.4,0.6-0.4s0.4-0.2,0.6-0.2c0.4,0,0.6,0.2,0.7,0.4c0.2,0.2,0.2,0.6,0.2,0.9V65.3z"/>
<path d="M32.8,54.3h2.8v13.8h2.8V54.3h2.8v-2.4h-8.4V54.3z"/>
<path d="M46.8,65.3c-0.2,0.2-0.6,0.6-0.7,0.6c-0.2,0.2-0.6,0.2-0.7,0.2c-0.2,0-0.4,0-0.6-0.2c-0.2-0.2-0.2-0.4-0.2-0.6v-9.2h-2.4
	v10.1c0,0.7,0.2,1.3,0.4,1.7c0.4,0.4,0.7,0.6,1.3,0.6c0.4,0,0.9-0.2,1.5-0.4c0.6-0.2,0.9-0.6,1.5-1.1v1.3h2.4v-12h-2.4V65.3z"/>
<path d="M50,2.6C23.5,2.6,2,23.9,2,50s21.5,47.4,48,47.4S98,76.1,98,50C98.2,23.9,76.7,2.6,50,2.6z M56,31.5h2.8v10.1
	c0,0.4,0,0.6,0.2,0.7c0.2,0.2,0.4,0.2,0.6,0.2c0.2,0,0.4-0.2,0.7-0.2c0.4-0.2,0.6-0.4,0.9-0.7V31.5H64v13.3h-2.8v-1.5
	c-0.6,0.6-1.1,0.9-1.5,1.3c-0.6,0.2-1.1,0.4-1.5,0.4c-0.6,0-1.1-0.2-1.5-0.6c-0.4-0.4-0.6-0.9-0.6-1.7V31.5H56z M45.7,34.5
	c0-0.9,0.4-1.9,1.1-2.4c0.7-0.6,1.7-0.9,3-0.9c1.1,0,2.1,0.4,2.8,0.9c0.7,0.6,1.1,1.5,1.1,2.4v6.9c0,1.1-0.4,2.1-1.1,2.6
	c-0.7,0.6-1.7,0.9-3,0.9c-1.1,0-2.2-0.4-2.8-0.9c-0.7-0.7-1.1-1.5-1.1-2.6V34.5z M38.2,26.8l2.1,7.1h0.2l1.9-7.1h3.2L42,37.3v7.5
	h-3.2v-7.1l-3.7-10.8H38.2z M74.1,64.6c0,4.9-3.9,8.6-8.8,8.6H34.9c-4.9,0-8.8-3.9-8.8-8.6v-6.9c0-4.9,3.9-8.6,8.8-8.6h30.4
	c4.9,0,8.8,3.9,8.8,8.6V64.6z"/>
<path d="M63.1,56c-1.1,0-2.1,0.4-2.6,0.9c-0.7,0.7-1.1,1.5-1.1,2.6v5.4c0,1.1,0.4,2.1,0.9,2.8c0.6,0.7,1.5,0.9,2.6,0.9
	c1.1,0,2.1-0.4,2.8-0.9c0.6-0.6,0.9-1.5,0.9-2.8v-0.7h-2.4v0.6c0,0.7,0,1.1-0.2,1.3c-0.2,0.2-0.4,0.4-0.9,0.4
	c-0.4,0-0.7-0.2-0.7-0.4c-0.2-0.2-0.2-0.7-0.2-1.3v-2.2h4.7v-3c0-1.1-0.4-2.1-0.9-2.6C64.9,56.2,64.2,56,63.1,56z M64,60.6h-2.2
	v-1.1c0-0.6,0-0.9,0.2-1.1c0.2-0.2,0.4-0.4,0.7-0.4c0.4,0,0.6,0.2,0.7,0.4c0.2,0.2,0.2,0.6,0.2,1.1v1.1H64z"/>
</svg>
